<svg width="375" height="667" viewBox="0 0 375 667" xmlns="http://www.w3.org/2000/svg"><title>D24F84E9-C19A-4C70-AB3A-35AF99A6B9AD</title><g fill="none" fill-rule="evenodd"><path fill="#FDD600" d="M-19-15h413v698H-19z"/><path d="M393.431-137.143H-19.118C-68.733 19.789-36.787 176.72-8.079 333.652 21.347 490.584 47.535 647.516 3.026 804.445h368.26c-44.51-156.93-18.32-313.861 11.107-470.793 28.707-156.93 60.654-313.863 11.038-470.795" fill="#F9AD32"/><path d="M353.919 205.909c-14.36 51.136-31.157 101.949-47.617 152.808-47.931 145.894-93.072 292.156-83.208 445.727h97.332c-44.512-156.928-18.319-313.86 11.103-470.793 7.79-42.582 15.816-85.16 22.39-127.742" opacity=".2" fill="#FFF"/><path d="M58.094 724.243c45.797-135.358 41.266-277.588 34.16-420.167C85.452 154.21 75.82 3.96 133.206-137.143H19.026C-30.586 19.789 1.359 176.721 30.067 333.652 54.48 463.85 76.66 594.048 58.093 724.242" fill-opacity=".2" fill="#FFF"/></g></svg>