<svg width="287" height="158" viewBox="0 0 287 158" xmlns="http://www.w3.org/2000/svg" xmlns:xlink="http://www.w3.org/1999/xlink"><title>F895DFBA-D5F4-4EE3-B0E8-DEDF3B433023</title><defs><text id="b" font-family="LobsterTwo, Lobster Two" font-size="144" fill="#251511"><tspan x="0" y="152">Swiil</tspan></text><filter x="-50%" y="-50%" width="200%" height="200%" filterUnits="objectBoundingBox" id="a"><feOffset dy="2" in="SourceAlpha" result="shadowOffsetOuter1"/><feGaussianBlur stdDeviation="1" in="shadowOffsetOuter1" result="shadowBlurOuter1"/><feColorMatrix values="0 0 0 0 0 0 0 0 0 0 0 0 0 0 0 0 0 0 0.5 0" in="shadowBlurOuter1"/></filter><path d="M270.681 61.363a7.44 7.44 0 0 1-10.51-.576 7.444 7.444 0 0 1 .576-10.512 7.444 7.444 0 1 1 9.934 11.088" id="d"/><filter x="-50%" y="-50%" width="200%" height="200%" filterUnits="objectBoundingBox" id="c"><feOffset dy="2" in="SourceAlpha" result="shadowOffsetOuter1"/><feGaussianBlur stdDeviation="1" in="shadowOffsetOuter1" result="shadowBlurOuter1"/><feColorMatrix values="0 0 0 0 0 0 0 0 0 0 0 0 0 0 0 0 0 0 0.5 0" in="shadowBlurOuter1"/></filter><path d="M284.674 34.106c-3.728 3.345-9.464 3.03-12.808-.703a9.073 9.073 0 0 1 .703-12.81c3.732-3.346 9.465-3.03 12.81.701 3.342 3.732 3.029 9.469-.705 12.812" id="f"/><filter x="-50%" y="-50%" width="200%" height="200%" filterUnits="objectBoundingBox" id="e"><feOffset dy="2" in="SourceAlpha" result="shadowOffsetOuter1"/><feGaussianBlur stdDeviation="1" in="shadowOffsetOuter1" result="shadowBlurOuter1"/><feColorMatrix values="0 0 0 0 0 0 0 0 0 0 0 0 0 0 0 0 0 0 0.5 0" in="shadowBlurOuter1"/></filter><path d="M261.038 16.895c-1.48 7.41-8.683 12.218-16.092 10.74-7.408-1.479-12.217-8.683-10.74-16.095C235.686 4.13 242.89-.677 250.3.8c7.407 1.48 12.217 8.684 10.74 16.095" id="h"/><filter x="-50%" y="-50%" width="200%" height="200%" filterUnits="objectBoundingBox" id="g"><feOffset dy="2" in="SourceAlpha" result="shadowOffsetOuter1"/><feGaussianBlur stdDeviation="1" in="shadowOffsetOuter1" result="shadowBlurOuter1"/><feColorMatrix values="0 0 0 0 0 0 0 0 0 0 0 0 0 0 0 0 0 0 0.5 0" in="shadowBlurOuter1"/></filter></defs><g fill="none" fill-rule="evenodd"><g fill="#251511" transform="translate(-3)"><use filter="url(#a)" xlink:href="#b"/><use xlink:href="#b"/></g><g transform="translate(-3)"><use fill="#000" filter="url(#c)" xlink:href="#d"/><use fill="#251511" xlink:href="#d"/></g><g transform="translate(-3)"><use fill="#000" filter="url(#e)" xlink:href="#f"/><use fill="#251511" xlink:href="#f"/></g><g transform="translate(-3)"><use fill="#000" filter="url(#g)" xlink:href="#h"/><use fill="#251511" xlink:href="#h"/></g></g></svg>